<?xml version="1.0" encoding="utf-8"?>
<!-- Generator: Adobe Illustrator 16.0.0, SVG Export Plug-In . SVG Version: 6.00 Build 0)  -->
<!DOCTYPE svg PUBLIC "-//W3C//DTD SVG 1.1//EN" "http://www.w3.org/Graphics/SVG/1.1/DTD/svg11.dtd">
<svg version="1.1" xmlns="http://www.w3.org/2000/svg" xmlns:xlink="http://www.w3.org/1999/xlink" x="0px" y="0px"
	 width="1193.891px" height="1211.271px" viewBox="0 0 1193.891 1211.271" enable-background="new 0 0 1193.891 1211.271"
	 xml:space="preserve">
<g id="background">
</g>
<g id="folder_logo">
	<path fill="#FFA726" stroke="#212121" stroke-width="15" stroke-miterlimit="10" d="M930.859,117.708V315.25
		c0,35.376-27.648,64.15-63.304,64.15h-0.51c-2.164,0-5.429,1.908-5.429,3.056v531.528c0,35.975-25.925,64.151-60.754,64.151H731.28
		V750.345c0-25.376-12.684-48.216-34.242-59.625l-100.021-52.505c-2.29-1.214-4.219-3.514-4.219-5.6V53.558h275.267
		C903.437,53.558,930.859,82.335,930.859,117.708z M316.702,616.787H304.23c-33.02,0-61.087,26.771-61.087,59.8v88.783
		c23.303-9.333,42.454-14.582,66.026-14.582c23.577,0,46.609,5.249,66.031,14.582v-88.792
		C375.2,643.558,349.725,616.787,316.702,616.787z M664.902,743.791l-95.384-50.07c-21.455-11.363-35.084-33.137-35.084-56.857
		V49.258c0-3.503-1.456-6.048-4.367-6.048c-0.252,0-0.199,0.02-0.473,0.054L86.276,98.557c-3.185,0.4-6.261,3.087-6.261,5.994
		v836.248c0,2.812,3.71,5.681,7.065,6.015l72.61,7.195c-4.442-14.536-7.337-29.947-7.337-45.919
		c0-36.232,13.107-69.617,32.529-96.246V676.586c0-65.196,54.147-118.053,119.347-118.053h12.472
		c65.198,0,116.758,52.853,116.758,118.053v135.261c23.303,26.625,33.657,60.009,33.657,96.242c0,26.998-6.519,52.432-18.552,74.65
		l212.92,21.169c0.219,0.02,0.517,0.028,0.732,0.028c1.816,0,2.438-0.858,3.155-1.573c0.791-0.802,1.127-2.227,1.127-4.46V749.138
		C666.5,747.879,666.925,744.859,664.902,743.791z M417.256,921.185c0,57.271-46.59,103.861-103.861,103.861
		c-57.272,0-103.865-46.59-103.865-103.861c0-57.271,46.593-103.864,103.865-103.864
		C370.667,817.321,417.256,863.914,417.256,921.185z M340.5,908.089c0-16.094-13.038-29.13-29.129-29.13
		c-16.093,0-29.13,13.037-29.13,29.13v31.073c0,16.087,13.038,29.127,29.13,29.127c16.091,0,29.129-13.04,29.129-29.127V908.089z"/>
</g>
<g id="text">
	<text transform="matrix(1 0 0 1 61 1025.2715)" font-family="'CenturyGothic'" font-size="392">folder</text>
	<text transform="matrix(1 0 0 1 58.0156 1114.6055)" font-family="'SegoeUI-Light'" font-size="72">· organize your codes, without limits ·</text>
</g>
</svg>
